<svg xmlns="http://www.w3.org/2000/svg" viewBox="0 0 329.15 309"><defs><style>.cls-1,.cls-4,.cls-5,.cls-7{fill:none;}.cls-1,.cls-4,.cls-5,.cls-6,.cls-7,.cls-8{stroke:#e07b78;stroke-miterlimit:10;}.cls-1{stroke-width:5px;}.cls-2{font-size:40.83px;}.cls-2,.cls-3,.cls-8,.cls-9{fill:#e07b78;}.cls-2,.cls-9{font-family:Montserrat-Regular, Montserrat;}.cls-4{stroke-width:2px;}.cls-5{stroke-width:0.75px;}.cls-6{fill:#fff;}.cls-7{stroke-width:0.5px;}.cls-9{font-size:45.33px;}</style></defs><title>Asset 1</title><g id="Layer_2" data-name="Layer 2"><g id="Layer_2-2" data-name="Layer 2"><path class="cls-1" d="M231.82,103.88A93,93,0,1,1,93.2,93.19" transform="translate(0 -14.31)"/><path class="cls-1" d="M129.76,69.1A96.51,96.51,0,0,1,212.5,81.42" transform="translate(0 -14.31)"/><text class="cls-2" transform="matrix(0.98, -0.18, 0.18, 0.97, 111.22, 43.31)">T</text><text class="cls-2" transform="translate(133.32 39.11) rotate(-1.48) scale(1 0.99)">E</text><text class="cls-2" transform="matrix(0.99, 0.14, -0.14, 0.98, 159.57, 38.27)">A</text><text class="cls-2" transform="matrix(0.96, 0.29, -0.28, 0.95, 186.15, 42.09)">T</text><text class="cls-2" transform="translate(207.74 48.21) rotate(25.8) scale(1 0.99)">R</text><text y="-14.31"></text><path class="cls-1" d="M249.48,143.28" transform="translate(0 -14.31)"/><path class="cls-1" d="M244.33,124.76" transform="translate(0 -14.31)"/><path class="cls-3" d="M199.63,156.74a3.52,3.52,0,0,0-.28.29l-.05.07v0s0,0,0,0,0-.1-.06-.1.06,0,.1-.07c.22-.12.46-.26.68-.4.45-.28.9-.58,1.35-.88l2.7-1.76,1.34-.89c.45-.3.85-.51,1.26-.79a19.06,19.06,0,0,0,2.31-1.83,42.81,42.81,0,0,0,7.33-9.55c1-1.75,2-3.57,2.88-5.4q.67-1.38,1.28-2.78c.4-.91.8-1.92,1.09-2.72s.6-1.89.91-2.89l.92-3.06c.63-2,1.29-4.1,2-6.15a102.75,102.75,0,0,1,4.92-12.33,26.8,26.8,0,0,1,4.18-6.36,41,41,0,0,1,5.47-4.62A198.71,198.71,0,0,1,262.32,81l.9,8.2c-1.45-.41-3.15-.81-4.76-1.16s-3.29-.68-4.94-1c-3.31-.62-6.65-1.12-10-1.53a156.17,156.17,0,0,0-20.23-1.22c-3.38,0-6.77.16-10.14.46s-6.75.73-10.11,1.29a101.46,101.46,0,0,0-10,2.29c-3.31.93-6.56,2.12-9.82,3.38a70.16,70.16,0,0,1,18.84-9.48,84.25,84.25,0,0,1,10.3-2.8,100.91,100.91,0,0,1,10.56-1.64,125,125,0,0,1,21.36-.35c3.56.24,7.1.63,10.64,1.12,1.77.26,3.53.56,5.29.9s3.47.69,5.38,1.17l10.88,2.74-10,5.45c-3.63,2-7.32,4.07-10.9,6.22s-7.14,4.33-10.42,6.67a39,39,0,0,0-4.35,3.51,19.19,19.19,0,0,0-2.87,4.23,118.79,118.79,0,0,0-5.11,11.13l-2.35,5.86-1.18,3c-.41,1-.79,2-1.28,3.11s-1,2.07-1.6,3.07-1.12,1.93-1.7,2.87a66.27,66.27,0,0,1-3.81,5.47,40.46,40.46,0,0,1-9.71,9.33A18.61,18.61,0,0,1,205,156c-1,.27-2.09.56-3.15.8-.53.12-1.07.23-1.61.33a8.32,8.32,0,0,1-.83.12.73.73,0,0,1-.29,0,.15.15,0,0,1-.09-.14.13.13,0,0,1,0-.08l.06-.05.1-.06A3.65,3.65,0,0,1,199.63,156.74Z" transform="translate(0 -14.31)"/><path class="cls-3" d="M147.05,84.6a21,21,0,0,0-6.89-7.24,44.25,44.25,0,0,0-8.9-4.44A110.2,110.2,0,0,0,111.83,68c-6.63-1.12-13.33-1.9-20.06-2.47s-13.54-.93-20.15-1l3.54-7.1C81,64.84,86.72,72.25,92.09,80.29c.66,1,1.32,2.06,2,3.2a18.79,18.79,0,0,1,1,1.92c.3.66.56,1.29.79,1.92a55.32,55.32,0,0,1,2.05,7.31c1.06,4.78,1.73,9.5,2.35,14.2l.43,3.5c.14,1.13.29,2.36.44,3.28.39,2,1,4.3,1.61,6.43a58.16,58.16,0,0,0,5.13,12.33,26.15,26.15,0,0,0,3.87,5.17c.37.38.76.72,1.17,1.07l1.36,1.06c.92.7,1.85,1.37,2.79,2q2.82,2,5.83,3.83c2,1.22,4,2.37,6.15,3.43a68.12,68.12,0,0,1-13.39-4.87c-1.08-.52-2.14-1.09-3.19-1.66l-1.57-.89c-.55-.34-1.1-.69-1.62-1.07a26.91,26.91,0,0,1-5.4-5.37,45.29,45.29,0,0,1-4-6.25,63.11,63.11,0,0,1-3.15-6.66,61.27,61.27,0,0,1-2.44-7c-.34-1.37-.54-2.47-.79-3.65l-.69-3.45c-.89-4.57-1.85-9.09-3-13.44a57.3,57.3,0,0,0-2-6.17c-.19-.47-.38-.92-.58-1.32A10.38,10.38,0,0,0,86.52,88c-.53-.88-1.17-1.81-1.8-2.74-2.56-3.74-5.34-7.5-8.12-11.22S71,66.52,68.21,62.8l-5.56-7.44,9.1.34c3.6.13,7,.35,10.52.69s6.94.71,10.39,1.22a166.44,166.44,0,0,1,20.55,4.16,87.56,87.56,0,0,1,19.67,7.69,39.58,39.58,0,0,1,8.63,6.26A19.62,19.62,0,0,1,147.05,84.6Z" transform="translate(0 -14.31)"/><path class="cls-4" d="M143.88,147.76c1.18,1-4,29.8-4.66,30.65-1.9,2.8-56.18,26.47-56.53,35.14" transform="translate(0 -14.31)"/><path class="cls-3" d="M136,140.73a23.34,23.34,0,0,0-3.7,5.4c-1.07,2-2,4.06-3,6.15-1.85,4.18-3.52,8.45-5.12,12.75-3.18,8.61-6.08,17.33-8.77,26.11,2.38-8.87,5-17.7,7.83-26.44,1.44-4.37,3-8.72,4.68-13,.86-2.14,1.77-4.27,2.79-6.37a24.68,24.68,0,0,1,3.88-6Z" transform="translate(0 -14.31)"/><path class="cls-4" d="M156.23,130.65c-2.54,1.1-13.49,2.27-20.94,9.36" transform="translate(0 -14.31)"/><path class="cls-3" d="M155.83,129.73a5.47,5.47,0,0,0,2.39-2.49,12.84,12.84,0,0,0,1.33-3.72,10.31,10.31,0,0,0,.06-4,5.4,5.4,0,0,0-2.07-3.41,5.65,5.65,0,0,1,2.55,3.28,11.05,11.05,0,0,1,.45,4.26,14.1,14.1,0,0,1-1,4.24,7,7,0,0,1-2.95,3.68Z" transform="translate(0 -14.31)"/><path class="cls-3" d="M178,83.6a36.68,36.68,0,0,0-3-3.68,14.67,14.67,0,0,0-3.46-2.84,7.77,7.77,0,0,0-1.92-.74,17.91,17.91,0,0,0-2.17-.44,19.67,19.67,0,0,0-4.34-.16,15.1,15.1,0,0,0-7.74,2.74,20.13,20.13,0,0,0-5.53,6.34,21.63,21.63,0,0,0-3,8,22.37,22.37,0,0,0,.53,8.63l.26,1.13c.06.32.17.65.27,1,.24.67.5,1.35.81,2a24,24,0,0,0,2.27,3.91,27.25,27.25,0,0,0,6.56,6.65,21,21,0,0,1-8.42-5.06,25.6,25.6,0,0,1-3.25-3.89,18,18,0,0,1-1.32-2.25c-.19-.41-.38-.81-.54-1.26l-.22-.6-.2-.56a23.44,23.44,0,0,1-1.47-10.27,23.85,23.85,0,0,1,3.37-10A28.76,28.76,0,0,1,148.59,78a20.07,20.07,0,0,1,4.12-3.49A17.79,17.79,0,0,1,163,71.81a19.51,19.51,0,0,1,5.14.91,21,21,0,0,1,2.41.94,9.76,9.76,0,0,1,2.33,1.43,15,15,0,0,1,3.16,4A21.93,21.93,0,0,1,178,83.6Z" transform="translate(0 -14.31)"/><path class="cls-3" d="M165.36,116.1a51.62,51.62,0,0,0,6.4.85,23.54,23.54,0,0,0,3.12,0,7,7,0,0,0,2.69-.78,12.09,12.09,0,0,0,4.36-3.78,14.38,14.38,0,0,0,1.47-2.5,12.28,12.28,0,0,0,.83-2.76,15.27,15.27,0,0,0,.25-2.94,24.44,24.44,0,0,0-.18-3,14.13,14.13,0,0,0-1.78-5.58,6.08,6.08,0,0,0-.82-1.1c-.16-.18-.23-.2-.66-.65a2.85,2.85,0,0,1-.53-1.08,27.63,27.63,0,0,1-.37-3.37A11.19,11.19,0,0,0,178,83.6,9.3,9.3,0,0,1,180.24,86a11.82,11.82,0,0,1,1.33,3.13c.3,1.07.46,2.24.78,3a.94.94,0,0,0,.23.34c.06,0,0,0,.16.12a4.74,4.74,0,0,1,.4.3,8.25,8.25,0,0,1,1.28,1.36,15,15,0,0,1,2.67,6.49,20.28,20.28,0,0,1,.07,7,14.32,14.32,0,0,1-8.7,10.63,8.44,8.44,0,0,1-3.61.58,23.36,23.36,0,0,1-3.33-.55A27.48,27.48,0,0,1,165.36,116.1Z" transform="translate(0 -14.31)"/><path class="cls-3" d="M228.5,158.61a18.9,18.9,0,0,1-4.91,1.95,43.6,43.6,0,0,1-5.21,1,27,27,0,0,1-5.35.26c-1.77-.09-3.53-.27-5.29-.48-.88-.11-1.76-.22-2.65-.38a9.59,9.59,0,0,1-1.4-.34,8.71,8.71,0,0,1-1.34-.62,22.35,22.35,0,0,1-4.24-3.48,23.61,23.61,0,0,1-1.86-2c-.58-.73-1.07-1.48-1.57-2.23-1-1.51-1.85-3-2.72-4.57l-2.52-4.63c-.42-.75-.84-1.57-1.26-2.19a20.36,20.36,0,0,0-1.58-1.94,31.8,31.8,0,0,0-3.71-3.51,12.59,12.59,0,0,0-2-1.36,8.06,8.06,0,0,0-2.29-.65,31.08,31.08,0,0,1-5.29-1,5.53,5.53,0,0,1-1.33-.68,3.74,3.74,0,0,1-1-1.21,8.67,8.67,0,0,1-.86-2.66,13.31,13.31,0,0,1,.26-5.38,9.9,9.9,0,0,1,2.56-4.61,11.63,11.63,0,0,0-1.86,9.8,7.8,7.8,0,0,0,.89,2.28,2.57,2.57,0,0,0,.71.78,4.34,4.34,0,0,0,1,.45,33.4,33.4,0,0,0,5.09.69,9.6,9.6,0,0,1,2.78.68,14,14,0,0,1,2.39,1.49,33.56,33.56,0,0,1,4,3.61,19.67,19.67,0,0,1,1.77,2.12c.57.82,1,1.58,1.39,2.35l2.55,4.6c.85,1.53,1.71,3,2.62,4.5.46.72.93,1.45,1.44,2.09s1.1,1.25,1.69,1.88a20.79,20.79,0,0,0,3.79,3.3,7.08,7.08,0,0,0,1,.52,10,10,0,0,0,1.15.32c.83.18,1.69.34,2.54.48,1.72.28,3.45.52,5.18.73a27.4,27.4,0,0,0,5.16.07A30.64,30.64,0,0,0,228.5,158.61Z" transform="translate(0 -14.31)"/><path class="cls-3" d="M171.83,186.43A59.47,59.47,0,0,1,178,201.55a101,101,0,0,1,2.87,16.14,80.91,80.91,0,0,1,.27,16.44l-.23,2.05c-.1.68-.22,1.36-.33,2l-.37,2c-.16.67-.34,1.34-.51,2a30.92,30.92,0,0,1-3,7.67l-.18-.09A63.56,63.56,0,0,0,179.15,234a139.69,139.69,0,0,0,.13-16.14,99.67,99.67,0,0,0-2.25-16,58.9,58.9,0,0,0-5.38-15.26Z" transform="translate(0 -14.31)"/><path class="cls-3" d="M182.53,146a55.46,55.46,0,0,1-.08,10.64,52.88,52.88,0,0,1-2.05,10.52,64.64,64.64,0,0,1-4.14,9.85c-.8,1.58-1.66,3.13-2.51,4.67q-.65,1.15-1.25,2.32c-.2.39-.39.78-.55,1.18a2,2,0,0,0-.21,1.25,2.07,2.07,0,0,1-.08-1.33,13.25,13.25,0,0,1,.33-1.31c.26-.86.57-1.69.88-2.52.64-1.65,1.31-3.29,2-4.91,1.32-3.25,2.63-6.49,3.66-9.8a84.2,84.2,0,0,0,2.42-10.13C181.54,153,182.06,149.56,182.53,146Z" transform="translate(0 -14.31)"/><path class="cls-3" d="M226.13,163.43a68.66,68.66,0,0,1-12.65,3.16,48.57,48.57,0,0,1-6.56.58,24.89,24.89,0,0,1-6.69-.69,11.3,11.3,0,0,1-3.22-1.39,25.19,25.19,0,0,1-2.72-2,40,40,0,0,1-4.64-4.72,57.26,57.26,0,0,1-7.18-10.9c2.69,3.41,5.44,6.73,8.39,9.82a48.65,48.65,0,0,0,4.65,4.31,23.22,23.22,0,0,0,2.53,1.8,10.91,10.91,0,0,0,2.71,1.16,26.3,26.3,0,0,0,6.17.75c2.11,0,4.25-.07,6.38-.23C217.58,164.73,221.85,164.12,226.13,163.43Z" transform="translate(0 -14.31)"/><path class="cls-3" d="M139.31,178.35a20.18,20.18,0,0,0,7.14,4.47,33.31,33.31,0,0,0,4,1.25c1.35.36,2.72.66,4.11.88s2.79.46,4.21.64,2.84.31,4.27.47,2.88.24,4.32.31a28.52,28.52,0,0,0,4.37,0l.08.18a17.6,17.6,0,0,1-4.36.84c-1.47.14-2.95.21-4.42.21a51.8,51.8,0,0,1-8.83-.7,31.79,31.79,0,0,1-8.44-2.69,15.69,15.69,0,0,1-6.61-5.78Z" transform="translate(0 -14.31)"/><path class="cls-3" d="M143.88,147.76c-.46-.14-.83.23-1.12.53a7.56,7.56,0,0,0-.8,1.06,26.64,26.64,0,0,0-1.32,2.35c-.83,1.6-1.58,3.25-2.33,4.89q-2.22,5-4.38,10c-1.47,3.32-2.92,6.65-4.44,10s-3.06,6.61-4.75,9.86c.92-3.55,2.06-7,3.3-10.45s2.6-6.82,4.05-10.17,3-6.65,4.82-9.85a54.3,54.3,0,0,1,2.89-4.7,22.22,22.22,0,0,1,1.72-2.18,7.63,7.63,0,0,1,1-.95C142.93,147.81,143.45,147.51,143.88,147.76Z" transform="translate(0 -14.31)"/><path class="cls-3" d="M182.49,146.13a15,15,0,0,0-2.62-.44,13.18,13.18,0,0,0-2.55.11,18.11,18.11,0,0,0-4.82,1.42,30.06,30.06,0,0,0-4.46,2.46,33,33,0,0,0-4.06,3l-1,.92-1.13-.74c-1.29-.84-2.77-1.62-4.18-2.36a45.57,45.57,0,0,0-4.39-2,21.36,21.36,0,0,0-4.57-1.24,8.66,8.66,0,0,0-4.71.53l-.12-.16a8.17,8.17,0,0,1,4.83-1.41,18.39,18.39,0,0,1,5,.79,34.13,34.13,0,0,1,4.74,1.78,42.4,42.4,0,0,1,4.48,2.38l-.24,0a31.43,31.43,0,0,1,4.42-3.18,26.63,26.63,0,0,1,4.91-2.33,16.66,16.66,0,0,1,5.34-1A13,13,0,0,1,180,145a12.21,12.21,0,0,1,2.56.93Z" transform="translate(0 -14.31)"/><path class="cls-4" d="M147,133.61c.65,2.84.53,12.82.53,12.82" transform="translate(0 -14.31)"/><path class="cls-4" d="M148.88,133c.84,3.06.43,13.16.43,13.16" transform="translate(0 -14.31)"/><path class="cls-4" d="M173.94,132c1.54,4.83.43,13.26.43,13.26" transform="translate(0 -14.31)"/><path class="cls-4" d="M175.66,132.32c1.67,4.45.51,12.75.51,12.75" transform="translate(0 -14.31)"/><path class="cls-3" d="M145.69,86.6A9.78,9.78,0,0,0,143,82.54c-1.14-.86-2.21-.69-3.47-.06A16.05,16.05,0,0,0,136,85.24a5.54,5.54,0,0,0-1.7,3.31c-.34,2.56.77,5.71,2.46,8.21a9,9,0,0,0,1.39,1.65,3.68,3.68,0,0,0,1.77.86,9,9,0,0,0,4.79-.62,7.62,7.62,0,0,1-4.85,2.58,5.52,5.52,0,0,1-3.11-.6,9.64,9.64,0,0,1-2.39-1.84A15.12,15.12,0,0,1,131.2,94a11.73,11.73,0,0,1-.86-6,8.79,8.79,0,0,1,3.14-5.57,18.38,18.38,0,0,1,2.3-1.63,11.51,11.51,0,0,1,2.7-1.23,6.43,6.43,0,0,1,3.27-.18,4.67,4.67,0,0,1,2.73,1.86,6.94,6.94,0,0,1,1.09,2.68A8.83,8.83,0,0,1,145.69,86.6Z" transform="translate(0 -14.31)"/><path class="cls-3" d="M178,83.75a25.29,25.29,0,0,0-7.42,3.09,43.54,43.54,0,0,0-6.47,4.69,69.33,69.33,0,0,0-5.34,5.73,19.57,19.57,0,0,0-2.24,3,6.24,6.24,0,0,0-.7,1.63,3.53,3.53,0,0,0-.13.91c0,.35,0,.71-.05,1.07l-.29.07c-.18-.31-.36-.62-.52-.93a4.11,4.11,0,0,1-.38-1.12,5.92,5.92,0,0,1,.09-2.36,12.37,12.37,0,0,1,1.83-4.08c1.61-2.47,4-4.16,6.24-5.8a38.09,38.09,0,0,1,7.29-4.15,24.16,24.16,0,0,1,8.06-2Z" transform="translate(0 -14.31)"/><path class="cls-4" d="M156.73,104.08a5.82,5.82,0,0,1-4.57-2.57c-1.35,8.41,5.67,7.77,5.67,7.77" transform="translate(0 -14.31)"/><path class="cls-3" d="M155,108.74a17,17,0,0,0,1.24,3.73,11.65,11.65,0,0,1,.92,1.57,9.94,9.94,0,0,1,.5,2l-.13.15a3,3,0,0,1-2.08-1.11,4.24,4.24,0,0,1-.73-2.11,10,10,0,0,1-.18-2.15,10.43,10.43,0,0,1,.27-2.09Z" transform="translate(0 -14.31)"/><path class="cls-3" d="M166.59,197.95a51.36,51.36,0,0,1,.78,13.93,101.08,101.08,0,0,1-1.92,13.86c-.94,4.56-1.74,9.19-3.45,13.53a68.2,68.2,0,0,1-6.22,12.52l-.38-.12a54.31,54.31,0,0,1,1.16-6.92c.23-1.14.53-2.25.78-3.37l.85-3.33c1.12-4.44,2.89-8.66,4.15-13.06l.9-3.3c.29-1.1.53-2.22.8-3.32s.49-2.22.73-3.34l.35-1.68.27-1.69A54.54,54.54,0,0,0,166.2,198Z" transform="translate(0 -14.31)"/><path class="cls-3" d="M154.37,197.46A11.85,11.85,0,0,1,154,201c-.27,1.15-.61,2.26-1,3.37-.72,2.22-1.53,4.4-2.37,6.57-1.71,4.32-3.57,8.57-5.46,12.79s-3.5,8.58-5.78,12.59c-1.13,2-2.27,4-3.47,6l-1.79,2.95a21.85,21.85,0,0,0-1.62,3l-.4,0a11.61,11.61,0,0,1,.32-3.64c.26-1.16.56-2.31.92-3.43.69-2.25,1.55-4.42,2.44-6.57,1.77-4.3,4.31-8.2,6.51-12.25l3.28-6.09q1.65-3,3.23-6.11c1.06-2,2.1-4.1,3-6.19.46-1,.92-2.1,1.3-3.17a11.38,11.38,0,0,0,.83-3.26Z" transform="translate(0 -14.31)"/><path class="cls-3" d="M143,192.42a12.19,12.19,0,0,0-2,2.79c-.59,1-1.13,2.05-1.66,3.11-1,2.11-2,4.26-3,6.41l-3.05,6.44q-1.58,3.2-3.25,6.37c-2.23,4.21-4.36,8.57-7.38,12.33a46.37,46.37,0,0,1-10.45,10l-.29-.28c1.2-2.11,2.47-4.11,3.73-6.09l3.75-5.93c1.26-2,2.55-3.9,3.91-5.8s2.69-3.84,4-5.82c2.5-4,4.89-8.05,7.31-12.13,1.22-2,2.44-4.08,3.73-6.09.65-1,1.3-2,2-3a12.68,12.68,0,0,1,2.5-2.64Z" transform="translate(0 -14.31)"/><path class="cls-3" d="M131,191.63a60.57,60.57,0,0,0-9.52,8.28c-1.51,1.48-3,3-4.43,4.55s-2.93,3.06-4.38,4.61c-2.9,3.09-5.52,6.46-8.72,9.27q-2.36,2.14-4.92,4.11A34,34,0,0,1,93.6,226l-.26-.31a89.17,89.17,0,0,1,7.8-10.19c2.78-3.23,6.16-5.88,9.32-8.74s6.38-5.68,9.71-8.36c.84-.67,1.67-1.33,2.54-2s1.7-1.3,2.59-1.9a30.46,30.46,0,0,1,5.56-3.28Z" transform="translate(0 -14.31)"/><path class="cls-3" d="M259.09,124.3c1,.4,12.56-3,12.56-3s-6.92,9.84-6.9,10.91,6.71,11,6.71,11l-12.51-3.19-8.42,9.79s0-11.82-.83-12.88-11.91-5-11.91-5,11.25-3.72,12-4.77,1.06-12.87,1.06-12.87S258.06,123.9,259.09,124.3Z" transform="translate(0 -14.31)"/><path class="cls-3" d="M180.65,158.71a19,19,0,0,1,11.16,1.3,23.49,23.49,0,0,1,9,7.42c.29.39.6.77.89,1.17l.78,1.22a26.52,26.52,0,0,1,1.46,2.5l1.29,2.57,1.08,2.64a26,26,0,0,1,1,2.67c.28.9.59,1.8.86,2.7l.69,2.73c.24.91.45,1.82.62,2.73.35,1.83.71,3.66.94,5.5l.36,2.76c.09.92.19,1.84.26,2.76l.23,2.76.19,2.66c0,.89.14,1.77.22,2.66s.13,1.78.24,2.65q.51,5.31,1.5,10.55c.33,1.75.73,3.49,1.21,5.21a27.92,27.92,0,0,0,1.87,5.07,19.13,19.13,0,0,1-3.4-4.41,46.72,46.72,0,0,1-2.5-5,64.83,64.83,0,0,1-3.33-10.64c-.4-1.81-.78-3.63-1.06-5.46l-.81-5.39-.37-2.64-.45-2.62c-.25-1.76-.62-3.48-1-5.21s-.78-3.42-1.15-5.13l-.69-2.51c-.23-.84-.46-1.68-.75-2.49a45.66,45.66,0,0,0-4-9.37,23.73,23.73,0,0,0-6.54-7.51A22.58,22.58,0,0,0,180.65,158.71Z" transform="translate(0 -14.31)"/><path class="cls-3" d="M126.12,149.87a62.45,62.45,0,0,0-15.69,9,91.91,91.91,0,0,0-12.77,12.35c-3.94,4.49-7.62,9.3-11.45,14.12-1.92,2.4-3.86,4.83-6,7.16a41,41,0,0,1-3.4,3.35,10.51,10.51,0,0,1-4.13,2.42,8.3,8.3,0,0,0,1.59-1.64,20.09,20.09,0,0,0,1.28-1.87c.78-1.3,1.52-2.63,2.26-4,1.46-2.69,2.92-5.41,4.48-8.1a97.54,97.54,0,0,1,10.83-15.41,57.5,57.5,0,0,1,14.68-12.32,39.58,39.58,0,0,1,8.87-3.77A32.88,32.88,0,0,1,126.12,149.87Z" transform="translate(0 -14.31)"/><path class="cls-5" d="M138.4,154.38c1.55,1,5.37,1.18,5.39,1.19" transform="translate(0 -14.31)"/><path class="cls-6" d="M233.47,158" transform="translate(0 -14.31)"/><path class="cls-6" d="M218.5,177.66" transform="translate(0 -14.31)"/><path class="cls-7" d="M230.47,160.06c.75.55.91,1.53.11,3.25-1.14,2.25-2.22,2.24-3.37,1.69a1.53,1.53,0,0,1-1-1.22,8.36,8.36,0,0,1,1.72-4.33" transform="translate(0 -14.31)"/><path class="cls-3" d="M228.5,158.61a2.42,2.42,0,0,1,1.49,0,1.64,1.64,0,0,1,.72.45.9.9,0,0,1,.23.5.84.84,0,0,1-.17.59,1.8,1.8,0,0,1-1.59.5,2.36,2.36,0,0,1-1.36-.59,5.47,5.47,0,0,0,1.36,0,1.73,1.73,0,0,0,1-.37c0-.06.06-.06,0-.2a1.38,1.38,0,0,0-.41-.36A5.71,5.71,0,0,0,228.5,158.61Z" transform="translate(0 -14.31)"/><path class="cls-8" d="M230.74,160.26l15.94-20.2a.35.35,0,0,0-.05-.49h0a.35.35,0,0,0-.49.06L230.4,159.44" transform="translate(0 -14.31)"/><path class="cls-8" d="M226.63,164.5l-2.82,3.57s.06.17.21.29h0c.15.12.3.18.33.14l2.83-3.59" transform="translate(0 -14.31)"/><path class="cls-7" d="M208.13,74.43" transform="translate(0 -14.31)"/><path class="cls-7" d="M129.72,65.48" transform="translate(0 -14.31)"/><text class="cls-9" transform="matrix(0.53, 0.88, -0.93, 0.56, 13.6, 191.09)">M</text><text class="cls-9" transform="matrix(0.74, 0.71, -0.75, 0.78, 40.64, 233.41)">A</text><text class="cls-9" transform="matrix(0.88, 0.52, -0.55, 0.93, 68.91, 259.3)">S</text><text class="cls-9" transform="matrix(0.98, 0.3, -0.32, 1.03, 98.14, 276.15)">K</text><text class="cls-9" transform="matrix(1.02, 0.06, -0.06, 1.08, 133.79, 286.65)">A</text><text class="cls-9" transform="matrix(1.01, -0.2, 0.21, 1.06, 172.73, 288.17)">R</text><text class="cls-9" transform="matrix(0.92, -0.46, 0.49, 0.96, 211.31, 279.54)">A</text><text class="cls-9" transform="matrix(0.74, -0.71, 0.75, 0.78, 246.67, 261.01)">D</text><text class="cls-9" transform="matrix(0.51, -0.89, 0.94, 0.54, 277.68, 229.54)">A</text><text class="cls-9" transform="matrix(0.36, -0.96, 1.01, 0.38, 295.01, 197.02)"> </text><text class="cls-9" transform="matrix(0.29, -0.98, 1.04, 0.3, 299.7, 184.14)"> </text><text class="cls-9" transform="matrix(0.26, -0.99, 1.04, 0.28, 303, 172.42)"> <tspan x="11.87" y="0"> </tspan></text><text y="-14.31"></text></g></g></svg>